<svg xmlns="http://www.w3.org/2000/svg" width="48" height="48" viewBox="0 0 48 48">
  <defs>
    <linearGradient id="bg48" x1="6" y1="4" x2="42" y2="45">
      <stop offset="0" stop-color="#748197"/>
      <stop offset="0.42" stop-color="#2a3240"/>
      <stop offset="1" stop-color="#0d1117"/>
    </linearGradient>
    <linearGradient id="shine48" x1="7" y1="5" x2="29" y2="21">
      <stop offset="0" stop-color="#dce8ff" stop-opacity="0.22"/>
      <stop offset="1" stop-color="#ffffff" stop-opacity="0"/>
    </linearGradient>
  </defs>
  <rect x="2.25" y="2.25" width="43.5" height="43.5" rx="11.5" fill="url(#bg48)"/>
  <path d="M6.1 6c4.1-2 8.8-2.8 14-2.5 7.4.4 13.8 2.9 19 7.8v6.2c-4.3-5.5-10.8-8.5-19.4-9-4.6-.2-8.9.6-12.8 2.5-1.3.6-1.9-1.2-.8-1.9Z" fill="url(#shine48)"/>
  <path d="M9.1 31h29.8" stroke="#c0cada" stroke-opacity="0.38" stroke-width="2" stroke-linecap="round"/>
  <path d="M9.1 31.5 15.2 23.8 19.9 26.7 24.5 19.5 30.2 21.9 39.2 14.5" fill="none" stroke="#ffffff" stroke-width="3.8" stroke-linecap="round" stroke-linejoin="round"/>
  <circle cx="39.2" cy="14.5" r="2.8" fill="#ffffff"/>
</svg>
