<svg xmlns="http://www.w3.org/2000/svg" width="16" height="16" viewBox="0 0 16 16">
  <defs>
    <linearGradient id="bg16" x1="2" y1="1.5" x2="14" y2="15">
      <stop offset="0" stop-color="#687385"/>
      <stop offset="0.42" stop-color="#2d3442"/>
      <stop offset="1" stop-color="#0f1218"/>
    </linearGradient>
    <linearGradient id="shine16" x1="3" y1="2" x2="11" y2="8">
      <stop offset="0" stop-color="#dbe8ff" stop-opacity="0.26"/>
      <stop offset="1" stop-color="#ffffff" stop-opacity="0"/>
    </linearGradient>
  </defs>
  <rect x="0.75" y="0.75" width="14.5" height="14.5" rx="4.2" fill="url(#bg16)"/>
  <path d="M2.1 2.2C3.4 1.6 5.1 1.4 7 1.5c2.6.2 4.8 1.1 6.5 2.7v2.3c-1.4-2-3.6-3.2-6.7-3.5-1.7-.1-3.3.2-4.7.8-.6.3-.9-.8 0-1.2Z" fill="url(#shine16)"/>
  <path d="M3.15 10.45h9.6" stroke="#b6c1d4" stroke-opacity="0.42" stroke-width="0.85" stroke-linecap="round"/>
  <path d="M3.15 10.55 5.15 8.05 6.65 8.95 8.1 6.8 9.95 7.55 12.45 5.65" fill="none" stroke="#ffffff" stroke-width="1.4" stroke-linecap="round" stroke-linejoin="round"/>
  <circle cx="12.45" cy="5.65" r="1" fill="#ffffff"/>
</svg>
