<svg xmlns="http://www.w3.org/2000/svg" width="128" height="128" viewBox="0 0 128 128">
  <defs>
    <linearGradient id="bg128" x1="16" y1="10" x2="112" y2="120">
      <stop offset="0" stop-color="#7a869d"/>
      <stop offset="0.4" stop-color="#29313f"/>
      <stop offset="1" stop-color="#0c1016"/>
    </linearGradient>
    <linearGradient id="shine128" x1="18" y1="14" x2="77" y2="54">
      <stop offset="0" stop-color="#dbe8ff" stop-opacity="0.2"/>
      <stop offset="1" stop-color="#ffffff" stop-opacity="0"/>
    </linearGradient>
  </defs>
  <rect x="6" y="6" width="116" height="116" rx="30" fill="url(#bg128)"/>
  <path d="M16 16.5c10.2-5.2 22.2-7.2 35.6-6.4 19.8 1 36.5 7.8 50.1 20.7v16c-11.7-14.7-28.8-22.7-51.4-23.9-11.7-.6-22.3 1.5-31.8 6.1-3.1 1.5-4.7-2.2-2.5-3.5Z" fill="url(#shine128)"/>
  <path d="M24 80.5h80" stroke="#c2cbdb" stroke-opacity="0.34" stroke-width="5.2" stroke-linecap="round"/>
  <path d="M24 82 40.5 61.5 52.8 69.3 64.6 50 80.2 56.6 104 38" fill="none" stroke="#ffffff" stroke-width="10" stroke-linecap="round" stroke-linejoin="round"/>
  <circle cx="104" cy="38" r="7" fill="#ffffff"/>
</svg>
